<svg width="150" height="51" viewBox="0 0 150 51" fill="none" xmlns="http://www.w3.org/2000/svg">
<path d="M29.8223 27.4806C28.582 26.4522 27.0935 25.5302 25.357 24.7855C23.6204 24.0407 21.7067 23.296 19.6158 22.5868C18.5526 22.2322 17.5957 21.913 16.7452 21.5938C15.8946 21.2747 15.1858 20.9555 14.5834 20.6009C13.9809 20.2462 13.5202 19.8916 13.2367 19.5015C12.9177 19.1114 12.7759 18.615 12.7759 18.083C12.7759 17.5156 12.9177 17.0546 13.2012 16.7C13.4847 16.3099 13.8391 16.0262 14.2644 15.7779C14.6897 15.5297 15.1858 15.3878 15.7529 15.2815C16.3199 15.1751 16.8515 15.1396 17.4185 15.1396C18.8715 15.1396 20.1828 15.4233 21.2814 15.9907C22.4155 16.5581 23.5141 17.3383 24.5773 18.2958C24.8608 18.5086 25.1089 18.7213 25.357 18.8632C25.605 19.005 25.8531 19.1114 26.1366 19.1114C26.4556 19.1114 26.7745 18.9696 27.0935 18.6504L31.6298 13.8275C32.0905 13.3665 32.3386 12.9055 32.3386 12.4799C32.3386 12.0544 32.1259 11.5933 31.7361 11.1323C30.9919 10.2812 30.035 9.50103 28.9364 8.79178C27.8377 8.08252 26.6682 7.47966 25.3924 6.94772C24.1166 6.45124 22.8053 6.02568 21.4586 5.77744C20.1119 5.49374 18.7298 5.3519 17.4185 5.3519C15.0441 5.3519 12.8823 5.6356 10.8977 6.23847C8.94848 6.80587 7.24738 7.65697 5.86524 8.68539C4.44766 9.74927 3.38448 11.0259 2.60481 12.5154C1.82514 14.0048 1.4353 15.6715 1.4353 17.5156C1.4353 19.2533 1.75426 20.8136 2.35673 22.2322C2.99464 23.6507 3.91606 24.9273 5.12101 26.0976C6.32595 27.2679 7.84985 28.3317 9.65727 29.2892C11.4647 30.2467 13.5556 31.1333 15.9301 31.9489C16.4616 32.1262 17.0641 32.3745 17.7729 32.6227C18.4817 32.9064 19.1196 33.1901 19.7575 33.5448C20.3954 33.8994 20.927 34.3249 21.3523 34.8214C21.7776 35.3179 21.9902 35.8498 21.9902 36.4527C21.9902 37.0201 21.9193 37.552 21.7776 38.0485C21.6358 38.545 21.3878 38.9706 21.0334 39.3606C20.679 39.7153 20.1474 40.0344 19.5094 40.2472C18.8715 40.46 18.0564 40.6018 17.0641 40.6018C16.1781 40.6018 15.2922 40.46 14.4062 40.1408C13.5556 39.8217 12.7405 39.4316 11.9608 38.9706C11.1812 38.5095 10.4369 38.0131 9.76358 37.4457C9.09023 36.9137 8.45233 36.4172 7.88529 35.9562C7.67266 35.7435 7.42458 35.6016 7.1765 35.4597C6.92843 35.3534 6.71579 35.2824 6.46771 35.2824C6.14876 35.2824 5.86524 35.4243 5.58173 35.708L0.513869 40.6018C0.265792 40.8501 0.124038 41.0983 0.0531593 41.3111C-0.0177198 41.5239 -0.0177198 41.7721 0.0531593 41.9849C0.124038 42.1977 0.230355 42.4104 0.372113 42.6232C0.513871 42.836 0.691066 43.0488 0.868264 43.2261C1.86057 44.2545 2.9592 45.212 4.16414 46.134C5.36909 47.0206 6.68035 47.8362 8.06249 48.51C9.44463 49.1838 10.8976 49.7158 12.3861 50.1413C13.8746 50.5314 15.3985 50.7442 16.9224 50.7442C19.3323 50.7442 21.5649 50.3896 23.6204 49.7158C25.6759 49.042 27.4479 48.0845 28.9718 46.8433C30.4957 45.6021 31.6652 44.1127 32.5158 42.3395C33.3663 40.5664 33.7916 38.6159 33.7916 36.4527C33.7916 34.3959 33.4372 32.6582 32.7638 31.2042C32.055 29.7502 31.0627 28.5091 29.8223 27.4806Z" fill="#204B45"/>
<path d="M68.3808 17.6597C67.3176 15.9221 65.9 14.539 64.0572 13.5106C62.2143 12.5176 59.8753 11.9857 56.9693 11.9857C55.1973 11.9857 53.5316 12.4112 51.9723 13.2624C50.413 14.1135 48.9954 15.1419 47.6841 16.3476V2.87178C47.6841 2.44623 47.5423 2.12706 47.2943 1.87882C47.0462 1.63058 46.6918 1.48874 46.302 1.48874H37.761C37.3358 1.48874 37.0168 1.59513 36.7687 1.84337C36.5207 2.05614 36.3789 2.41077 36.3789 2.90725V48.7605C36.3789 49.6826 36.8396 50.1436 37.761 50.1436H46.302C46.7627 50.1436 47.0816 50.0017 47.3297 49.7535C47.5778 49.5052 47.6841 49.1506 47.6841 48.7605V29.788C47.6841 28.5822 47.8259 27.5184 48.1448 26.6318C48.4638 25.7452 48.8891 24.9651 49.4206 24.3622C49.9522 23.7593 50.6256 23.2983 51.3698 22.9791C52.114 22.66 52.9292 22.5181 53.7797 22.5181C54.6303 22.5181 55.4454 22.6954 56.1896 23.0501C56.9338 23.4047 57.5717 23.9012 58.1033 24.575C58.6349 25.2487 59.0602 26.0999 59.3437 27.0573C59.6272 28.0503 59.8044 29.1496 59.8044 30.4263V48.7605C59.8044 49.6826 60.2651 50.1436 61.1866 50.1436H69.7275C70.1882 50.1436 70.5072 50.0017 70.7552 49.7535C71.0033 49.5052 71.1096 49.1506 71.1096 48.7605V31.5611C71.1096 28.795 70.897 26.2417 70.5426 23.8657C70.1173 21.4897 69.4085 19.4329 68.3808 17.6597Z" fill="#204B45"/>
<path d="M110.412 35.4276L104.706 32.4132C104.387 32.2359 104.068 32.2359 103.784 32.4132C103.536 32.5196 103.359 32.7324 103.182 33.0161C102.934 33.5126 102.686 34.0445 102.473 34.6119C102.225 35.1793 101.906 35.7467 101.481 36.3141C101.056 36.917 100.489 37.5199 99.7444 38.1227C99.0001 38.7256 98.0078 39.3639 96.7674 39.9668C95.8815 40.3923 94.96 40.676 94.0386 40.8179C93.0817 40.9597 92.1603 40.9243 91.2389 40.747C90.3174 40.5697 89.4669 40.2505 88.6164 39.754C87.8012 39.2575 87.0216 38.6547 86.3128 37.8745L105.379 28.4414C106.088 28.0868 106.691 27.7321 107.151 27.413C107.612 27.0938 107.931 26.7392 108.144 26.3491C108.356 25.959 108.427 25.498 108.321 25.0015C108.25 24.505 108.037 23.8667 107.683 23.1575C106.691 21.1006 105.521 19.3984 104.21 18.0154C102.898 16.6323 101.552 15.4975 100.099 14.6109C98.6457 13.7598 97.1927 13.1215 95.6688 12.7314C94.1449 12.3413 92.6564 12.164 91.2389 12.1286C89.7858 12.1286 88.4037 12.2704 87.0924 12.5896C85.7812 12.9087 84.5762 13.2988 83.5485 13.8308C81.0323 15.072 78.9414 16.6678 77.3111 18.6182C75.6809 20.5687 74.476 22.6964 73.7672 25.0015C73.0584 27.3066 72.7749 29.7181 72.9875 32.2359C73.2002 34.7538 73.909 37.2007 75.0785 39.5767C76.248 41.9527 77.8427 43.9741 79.8273 45.6054C81.812 47.2366 83.9738 48.4424 86.3482 49.2225C88.7227 50.0027 91.168 50.3219 93.7196 50.18C96.2713 50.0382 98.6812 49.4353 100.949 48.3005C101.977 47.8041 102.969 47.2012 103.926 46.5628C104.883 45.9245 105.805 45.1798 106.691 44.2932C107.576 43.4421 108.392 42.4137 109.171 41.2434C109.951 40.0732 110.66 38.7256 111.262 37.2362C111.439 36.8106 111.475 36.4914 111.333 36.2077C111.156 35.8886 110.872 35.6403 110.412 35.4276ZM83.2295 27.5903C83.3713 26.8101 83.5839 26.0299 83.9383 25.3207C84.2573 24.6114 84.718 23.9731 85.2496 23.3702C85.7812 22.8028 86.4191 22.3063 87.1633 21.9163C88.6872 21.1715 90.2466 20.9233 91.8413 21.1715C93.4361 21.4198 94.96 22.1645 96.4485 23.4057L83.0878 30.0372C83.0523 29.1861 83.1232 28.3705 83.2295 27.5903Z" fill="#204B45"/>
<path d="M122.71 1.48874H114.346C113.921 1.48874 113.602 1.59513 113.318 1.84337C113.035 2.05614 112.893 2.41077 112.893 2.90725V48.7605C112.893 49.2216 113.035 49.5762 113.283 49.8244C113.531 50.0372 113.885 50.179 114.346 50.179H122.71C123.17 50.179 123.525 50.0372 123.773 49.789C124.021 49.5407 124.127 49.1861 124.127 48.796V2.87178C124.127 2.44623 123.986 2.12706 123.737 1.87882C123.489 1.63058 123.135 1.48874 122.71 1.48874Z" fill="#204B45"/>
<path d="M148.899 16.5256H143.3V14.5397C143.3 13.6531 143.406 12.9439 143.583 12.3765C143.76 11.8091 144.044 11.3835 144.398 11.0644C144.753 10.7452 145.178 10.5324 145.674 10.3906C146.17 10.2842 146.737 10.2132 147.375 10.2132C147.942 10.2132 148.403 10.1069 148.687 9.89408C149.005 9.6813 149.147 9.25576 149.147 8.58197V1.73766C149.147 1.06386 149.041 0.602851 148.793 0.354612C148.545 0.106373 148.049 -1.52588e-05 147.269 -1.52588e-05C144.859 -1.52588e-05 142.733 0.354612 140.854 1.06387C138.976 1.77312 137.381 2.69515 136.106 3.90088C134.83 5.10662 133.837 6.4542 133.164 8.05002C132.491 9.61038 132.136 11.2771 132.136 13.0503V16.5611H128.061C127.742 16.5611 127.494 16.6675 127.246 16.8448C127.033 17.0576 126.891 17.3413 126.891 17.7313V25.5331C126.891 25.9232 126.998 26.2069 127.21 26.4197C127.423 26.6325 127.706 26.7034 128.025 26.7034H132.101V48.9385C132.101 49.7896 132.526 50.2152 133.377 50.2152H141.988C142.839 50.2152 143.264 49.7896 143.264 48.9385V26.7034H148.864C149.608 26.7034 149.998 26.3133 149.998 25.5331V17.7313C150.033 16.9157 149.643 16.5256 148.899 16.5256Z" fill="#204B45"/>
</svg>
