<svg width="80" height="28" viewBox="0 0 80 28" fill="none" xmlns="http://www.w3.org/2000/svg">
<path d="M15.9053 15.5102C15.2438 14.959 14.4499 14.4648 13.5238 14.0656C12.5976 13.6664 11.577 13.2672 10.4618 12.887C9.89478 12.6969 9.38445 12.5259 8.93082 12.3548C8.47719 12.1837 8.09917 12.0126 7.77785 11.8225C7.45654 11.6324 7.21082 11.4424 7.05962 11.2333C6.88951 11.0242 6.8139 10.758 6.8139 10.4729C6.8139 10.1688 6.8895 9.92165 7.04071 9.73156C7.19192 9.52246 7.38093 9.37039 7.60775 9.23733C7.83456 9.10427 8.09917 9.02823 8.40159 8.97121C8.704 8.91418 8.98752 8.89517 9.28994 8.89517C10.0649 8.89517 10.7642 9.04724 11.3502 9.35138C11.955 9.65553 12.5409 10.0737 13.108 10.587C13.2592 10.701 13.3915 10.8151 13.5238 10.8911C13.6561 10.9671 13.7884 11.0242 13.9396 11.0242C14.1097 11.0242 14.2798 10.9481 14.4499 10.777L16.8693 8.19185C17.115 7.94473 17.2473 7.69762 17.2473 7.46951C17.2473 7.24141 17.1339 6.99429 16.926 6.74718C16.5291 6.29096 16.0187 5.87277 15.4328 5.49259C14.8469 5.11242 14.2231 4.78927 13.5427 4.50414C12.8622 4.23802 12.1629 4.00991 11.4447 3.87684C10.7264 3.72477 9.98928 3.64874 9.28994 3.64874C8.02357 3.64874 6.8706 3.80081 5.81214 4.12396C4.77258 4.4281 3.86533 4.88431 3.12819 5.43557C2.37214 6.00583 1.80512 6.69015 1.38929 7.48852C0.973469 8.28689 0.765553 9.1803 0.765553 10.1688C0.765553 11.1002 0.935664 11.9366 1.25698 12.6969C1.5972 13.4573 2.08863 14.1416 2.73126 14.7689C3.3739 15.3962 4.18665 15.9664 5.15061 16.4797C6.11456 16.9929 7.22972 17.4681 8.49609 17.9053C8.77961 18.0004 9.10093 18.1335 9.47895 18.2665C9.85697 18.4186 10.1972 18.5706 10.5374 18.7607C10.8776 18.9508 11.1611 19.1789 11.388 19.4451C11.6148 19.7112 11.7282 19.9963 11.7282 20.3195C11.7282 20.6236 11.6904 20.9087 11.6148 21.1749C11.5392 21.441 11.4069 21.6691 11.2179 21.8782C11.0288 22.0683 10.7453 22.2394 10.4051 22.3534C10.0649 22.4675 9.63016 22.5435 9.10093 22.5435C8.6284 22.5435 8.15588 22.4675 7.68335 22.2964C7.22972 22.1253 6.795 21.9162 6.37918 21.6691C5.96335 21.422 5.56643 21.1558 5.20731 20.8517C4.84819 20.5666 4.50797 20.3005 4.20555 20.0533C4.09214 19.9393 3.95984 19.8633 3.82753 19.7872C3.69522 19.7302 3.58182 19.6922 3.44951 19.6922C3.2794 19.6922 3.12819 19.7682 2.97698 19.9203L0.274124 22.5435C0.141817 22.6766 0.0662148 22.8096 0.0284126 22.9237C-0.0093895 23.0377 -0.0093895 23.1708 0.0284126 23.2848C0.0662148 23.3989 0.122917 23.5129 0.198521 23.627C0.274125 23.7411 0.36863 23.8551 0.463135 23.9501C0.992365 24.5014 1.5783 25.0146 2.22094 25.5089C2.86358 25.9841 3.56291 26.4213 4.30006 26.7825C5.0372 27.1436 5.81214 27.4288 6.60598 27.6569C7.39983 27.866 8.21258 27.98 9.02533 27.98C10.3106 27.98 11.5014 27.7899 12.5976 27.4288C13.6939 27.0676 14.6389 26.5543 15.4517 25.889C16.2644 25.2237 16.8882 24.4254 17.3418 23.4749C17.7954 22.5245 18.0222 21.479 18.0222 20.3195C18.0222 19.217 17.8332 18.2855 17.4741 17.5062C17.0961 16.7268 16.5669 16.0615 15.9053 15.5102Z" fill="#fff"/>
<path d="M36.4697 10.246C35.9027 9.31455 35.1466 8.57321 34.1638 8.02196C33.1809 7.48971 31.9335 7.20457 30.3836 7.20457C29.4385 7.20457 28.5502 7.43268 27.7185 7.88889C26.8869 8.3451 26.1308 8.89636 25.4315 9.54266V2.31931C25.4315 2.09121 25.3559 1.92013 25.2236 1.78706C25.0913 1.654 24.9023 1.57797 24.6943 1.57797H20.1392C19.9124 1.57797 19.7423 1.635 19.61 1.76806C19.4777 1.88211 19.402 2.0722 19.402 2.33832V26.9167C19.402 27.4109 19.6478 27.6581 20.1392 27.6581H24.6943C24.9401 27.6581 25.1102 27.582 25.2425 27.4489C25.3748 27.3159 25.4315 27.1258 25.4315 26.9167V16.747C25.4315 16.1007 25.5071 15.5304 25.6772 15.0552C25.8473 14.58 26.0741 14.1618 26.3576 13.8386C26.6412 13.5155 27.0003 13.2684 27.3972 13.0973C27.7941 12.9262 28.2288 12.8502 28.6825 12.8502C29.1361 12.8502 29.5708 12.9452 29.9677 13.1353C30.3647 13.3254 30.7049 13.5915 30.9884 13.9527C31.2719 14.3139 31.4987 14.7701 31.6499 15.2833C31.8011 15.8156 31.8957 16.4048 31.8957 17.0892V26.9167C31.8957 27.4109 32.1414 27.6581 32.6328 27.6581H37.188C37.4337 27.6581 37.6038 27.582 37.7361 27.4489C37.8684 27.3159 37.9251 27.1258 37.9251 26.9167V17.6974C37.9251 16.2147 37.8117 14.8461 37.6227 13.5725C37.3959 12.2989 37.0178 11.1964 36.4697 10.246Z" fill="#fff"/>
<path d="M58.8862 19.7699L55.8431 18.1542C55.673 18.0592 55.5029 18.0592 55.3517 18.1542C55.2194 18.2112 55.1249 18.3253 55.0304 18.4773C54.8981 18.7435 54.7658 19.0286 54.6524 19.3327C54.5201 19.6369 54.35 19.941 54.1231 20.2452C53.8963 20.5683 53.5939 20.8915 53.197 21.2146C52.8001 21.5378 52.2708 21.8799 51.6093 22.2031C51.1368 22.4312 50.6453 22.5832 50.1539 22.6593C49.6436 22.7353 49.1522 22.7163 48.6607 22.6213C48.1693 22.5262 47.7157 22.3551 47.2621 22.089C46.8273 21.8229 46.4115 21.4997 46.0335 21.0815L56.2023 16.0252C56.5803 15.8351 56.9016 15.645 57.1473 15.4739C57.393 15.3029 57.5631 15.1128 57.6765 14.9037C57.79 14.6946 57.8278 14.4475 57.7711 14.1814C57.7333 13.9152 57.6198 13.5731 57.4308 13.1929C56.9016 12.0904 56.2779 11.178 55.5785 10.4366C54.8792 9.69527 54.1609 9.08699 53.386 8.61177C52.6111 8.15556 51.8361 7.8134 51.0234 7.6043C50.2106 7.39521 49.4168 7.30017 48.6607 7.28116C47.8858 7.28116 47.1486 7.35719 46.4493 7.52827C45.75 7.69935 45.1073 7.90845 44.5592 8.19358C43.2172 8.85889 42.1021 9.71428 41.2326 10.7598C40.3632 11.8053 39.7205 12.9458 39.3425 14.1814C38.9645 15.4169 38.8133 16.7095 38.9267 18.0592C39.0401 19.4088 39.4181 20.7204 40.0418 21.994C40.6656 23.2676 41.5161 24.3511 42.5746 25.2255C43.633 26.0999 44.786 26.7462 46.0524 27.1644C47.3188 27.5826 48.6229 27.7536 49.9838 27.6776C51.3447 27.6016 52.63 27.2784 53.8396 26.6701C54.3878 26.404 54.917 26.0809 55.4273 25.7387C55.9376 25.3965 56.4291 24.9974 56.9016 24.5221C57.3741 24.0659 57.8089 23.5147 58.2247 22.8874C58.6405 22.2601 59.0185 21.5378 59.3398 20.7394C59.4343 20.5113 59.4532 20.3402 59.3776 20.1881C59.2831 20.0171 59.1319 19.884 58.8862 19.7699ZM44.3891 15.569C44.4647 15.1508 44.5781 14.7326 44.7671 14.3524C44.9372 13.9723 45.1829 13.6301 45.4665 13.3069C45.75 13.0028 46.0902 12.7367 46.4871 12.5276C47.2999 12.1284 48.1315 11.9953 48.9821 12.1284C49.8326 12.2615 50.6453 12.6606 51.4392 13.326L44.3135 16.8806C44.2946 16.4244 44.3324 15.9872 44.3891 15.569Z" fill="#fff"/>
<path d="M65.4452 1.57797H60.9845C60.7577 1.57797 60.5876 1.635 60.4364 1.76806C60.2852 1.88211 60.2096 2.0722 60.2096 2.33832V26.9167C60.2096 27.1638 60.2852 27.3539 60.4175 27.487C60.5498 27.601 60.7388 27.6771 60.9845 27.6771H65.4452C65.6909 27.6771 65.8799 27.601 66.0122 27.468C66.1445 27.3349 66.2012 27.1448 66.2012 26.9357V2.31931C66.2012 2.09121 66.1256 1.92013 65.9933 1.78706C65.861 1.654 65.672 1.57797 65.4452 1.57797Z" fill="#fff"/>
<path d="M79.4129 9.63807H76.4265V8.57358C76.4265 8.09836 76.4832 7.71818 76.5777 7.41404C76.6722 7.1099 76.8235 6.8818 77.0125 6.71072C77.2015 6.53964 77.4283 6.42558 77.6929 6.34954C77.9575 6.29252 78.2599 6.2545 78.6002 6.2545C78.9026 6.2545 79.1483 6.19748 79.2995 6.08342C79.4696 5.96937 79.5452 5.74127 79.5452 5.3801V1.7114C79.5452 1.35023 79.4885 1.10312 79.3562 0.970056C79.2239 0.836995 78.9593 0.779968 78.5435 0.779968C77.2582 0.779968 76.1241 0.970056 75.1224 1.35023C74.1206 1.73041 73.2701 2.22464 72.5896 2.87094C71.9092 3.51724 71.3799 4.23957 71.0208 5.09497C70.6617 5.93136 70.4727 6.82476 70.4727 7.77521V9.65708H68.2991C68.129 9.65708 67.9967 9.71411 67.8643 9.80915C67.7509 9.9232 67.6753 10.0753 67.6753 10.2844V14.4663C67.6753 14.6754 67.732 14.8275 67.8454 14.9415C67.9588 15.0556 68.1101 15.0936 68.2802 15.0936H70.4538V27.0121C70.4538 27.4683 70.6806 27.6964 71.1342 27.6964H75.7272C76.1808 27.6964 76.4076 27.4683 76.4076 27.0121V15.0936H79.394C79.7909 15.0936 79.9988 14.8845 79.9988 14.4663V10.2844C80.0177 9.84717 79.8098 9.63807 79.4129 9.63807Z" fill="#fff"/>
</svg>
