<svg width="100" height="28" viewBox="0 0 100 28" fill="none" xmlns="http://www.w3.org/2000/svg">
<path d="M15.9053 14.7302C15.2438 14.179 14.4499 13.6847 13.5238 13.2855C12.5976 12.8864 11.577 12.4872 10.4618 12.107C9.89478 11.9169 9.38445 11.7458 8.93082 11.5747C8.47719 11.4037 8.09917 11.2326 7.77785 11.0425C7.45654 10.8524 7.21082 10.6623 7.05962 10.4532C6.88951 10.2441 6.8139 9.97801 6.8139 9.69287C6.8139 9.38873 6.8895 9.14162 7.04071 8.95153C7.19192 8.74243 7.38093 8.59036 7.60775 8.4573C7.83456 8.32424 8.09917 8.24821 8.40159 8.19118C8.704 8.13415 8.98752 8.11514 9.28994 8.11514C10.0649 8.11514 10.7642 8.26721 11.3502 8.57135C11.955 8.8755 12.5409 9.29369 13.108 9.80693C13.2592 9.92098 13.3915 10.035 13.5238 10.1111C13.6561 10.1871 13.7884 10.2441 13.9396 10.2441C14.1097 10.2441 14.2798 10.1681 14.4499 9.99702L16.8693 7.41182C17.115 7.1647 17.2473 6.91759 17.2473 6.68948C17.2473 6.46138 17.1339 6.21426 16.926 5.96715C16.5291 5.51093 16.0187 5.09274 15.4328 4.71256C14.8469 4.33239 14.2231 4.00924 13.5427 3.72411C12.8622 3.45799 12.1629 3.22988 11.4447 3.09682C10.7264 2.94475 9.98928 2.86871 9.28994 2.86871C8.02357 2.86871 6.8706 3.02078 5.81214 3.34393C4.77258 3.64807 3.86533 4.10428 3.12819 4.65554C2.37214 5.2258 1.80512 5.91012 1.38929 6.70849C0.973469 7.50686 0.765553 8.40027 0.765553 9.38873C0.765553 10.3202 0.935664 11.1566 1.25698 11.9169C1.5972 12.6773 2.08863 13.3616 2.73126 13.9889C3.3739 14.6162 4.18665 15.1864 5.15061 15.6997C6.11456 16.2129 7.22972 16.6881 8.49609 17.1253C8.77961 17.2204 9.10093 17.3534 9.47895 17.4865C9.85697 17.6386 10.1972 17.7906 10.5374 17.9807C10.8776 18.1708 11.1611 18.3989 11.388 18.665C11.6148 18.9312 11.7282 19.2163 11.7282 19.5394C11.7282 19.8436 11.6904 20.1287 11.6148 20.3948C11.5392 20.661 11.4069 20.8891 11.2179 21.0982C11.0288 21.2882 10.7453 21.4593 10.4051 21.5734C10.0649 21.6874 9.63016 21.7635 9.10093 21.7635C8.6284 21.7635 8.15588 21.6874 7.68335 21.5164C7.22972 21.3453 6.795 21.1362 6.37918 20.8891C5.96335 20.6419 5.56643 20.3758 5.20731 20.0717C4.84819 19.7865 4.50797 19.5204 4.20555 19.2733C4.09214 19.1593 3.95984 19.0832 3.82753 19.0072C3.69522 18.9502 3.58182 18.9121 3.44951 18.9121C3.2794 18.9121 3.12819 18.9882 2.97698 19.1403L0.274124 21.7635C0.141817 21.8965 0.0662148 22.0296 0.0284126 22.1436C-0.0093895 22.2577 -0.0093895 22.3908 0.0284126 22.5048C0.0662148 22.6189 0.122917 22.7329 0.198521 22.847C0.274125 22.961 0.36863 23.0751 0.463135 23.1701C0.992365 23.7214 1.5783 24.2346 2.22094 24.7288C2.86358 25.2041 3.56291 25.6413 4.30006 26.0024C5.0372 26.3636 5.81214 26.6487 6.60598 26.8768C7.39983 27.0859 8.21258 27.2 9.02533 27.2C10.3106 27.2 11.5014 27.0099 12.5976 26.6487C13.6939 26.2876 14.6389 25.7743 15.4517 25.109C16.2644 24.4437 16.8882 23.6453 17.3418 22.6949C17.7954 21.7445 18.0222 20.699 18.0222 19.5394C18.0222 18.4369 17.8332 17.5055 17.4741 16.7261C17.0961 15.9468 16.5669 15.2815 15.9053 14.7302Z" fill="#fff"/>
<path d="M36.4697 9.46598C35.9027 8.53455 35.1466 7.79321 34.1638 7.24196C33.1809 6.70971 31.9335 6.42457 30.3836 6.42457C29.4385 6.42457 28.5502 6.65268 27.7185 7.10889C26.8869 7.5651 26.1308 8.11636 25.4315 8.76266V1.53932C25.4315 1.31121 25.3559 1.14013 25.2236 1.00707C25.0913 0.874004 24.9023 0.797974 24.6943 0.797974H20.1392C19.9124 0.797974 19.7423 0.855 19.61 0.988062C19.4777 1.10211 19.402 1.2922 19.402 1.55833V26.1367C19.402 26.6309 19.6478 26.8781 20.1392 26.8781H24.6943C24.9401 26.8781 25.1102 26.802 25.2425 26.6689C25.3748 26.5359 25.4315 26.3458 25.4315 26.1367V15.967C25.4315 15.3207 25.5071 14.7504 25.6772 14.2752C25.8473 13.8 26.0741 13.3818 26.3576 13.0587C26.6412 12.7355 27.0003 12.4884 27.3972 12.3173C27.7941 12.1462 28.2288 12.0702 28.6825 12.0702C29.1361 12.0702 29.5708 12.1652 29.9677 12.3553C30.3647 12.5454 30.7049 12.8115 30.9884 13.1727C31.2719 13.5339 31.4987 13.9901 31.6499 14.5033C31.8011 15.0356 31.8957 15.6248 31.8957 16.3092V26.1367C31.8957 26.6309 32.1414 26.8781 32.6328 26.8781H37.188C37.4337 26.8781 37.6038 26.802 37.7361 26.6689C37.8684 26.5359 37.9251 26.3458 37.9251 26.1367V16.9174C37.9251 15.4347 37.8117 14.0661 37.6227 12.7925C37.3959 11.5189 37.0178 10.4164 36.4697 9.46598Z" fill="#fff"/>
<path d="M58.8862 18.9899L55.8431 17.3742C55.673 17.2792 55.5029 17.2792 55.3517 17.3742C55.2194 17.4312 55.1249 17.5453 55.0304 17.6973C54.8981 17.9635 54.7658 18.2486 54.6524 18.5527C54.5201 18.8569 54.35 19.161 54.1231 19.4652C53.8963 19.7883 53.5939 20.1115 53.197 20.4346C52.8001 20.7578 52.2708 21.0999 51.6093 21.4231C51.1368 21.6512 50.6453 21.8032 50.1539 21.8793C49.6436 21.9553 49.1522 21.9363 48.6607 21.8413C48.1693 21.7462 47.7157 21.5751 47.2621 21.309C46.8273 21.0429 46.4115 20.7197 46.0335 20.3015L56.2023 15.2452C56.5803 15.0551 56.9016 14.865 57.1473 14.6939C57.393 14.5229 57.5631 14.3328 57.6765 14.1237C57.79 13.9146 57.8278 13.6675 57.7711 13.4014C57.7333 13.1352 57.6198 12.7931 57.4308 12.4129C56.9016 11.3104 56.2779 10.398 55.5785 9.65662C54.8792 8.91527 54.1609 8.307 53.386 7.83178C52.6111 7.37556 51.8361 7.0334 51.0234 6.82431C50.2106 6.61521 49.4168 6.52017 48.6607 6.50116C47.8858 6.50116 47.1486 6.57719 46.4493 6.74827C45.75 6.91935 45.1073 7.12845 44.5592 7.41358C43.2172 8.07889 42.1021 8.93428 41.2326 9.97977C40.3632 11.0253 39.7205 12.1658 39.3425 13.4014C38.9645 14.6369 38.8133 15.9295 38.9267 17.2792C39.0401 18.6288 39.4181 19.9404 40.0418 21.214C40.6656 22.4876 41.5161 23.5711 42.5746 24.4455C43.633 25.3199 44.786 25.9662 46.0524 26.3844C47.3188 26.8026 48.6229 26.9736 49.9838 26.8976C51.3447 26.8216 52.63 26.4984 53.8396 25.8901C54.3878 25.624 54.917 25.3009 55.4273 24.9587C55.9376 24.6165 56.4291 24.2174 56.9016 23.7421C57.3741 23.2859 57.8089 22.7347 58.2247 22.1074C58.6405 21.4801 59.0185 20.7578 59.3398 19.9594C59.4343 19.7313 59.4532 19.5602 59.3776 19.4081C59.2831 19.2371 59.1319 19.104 58.8862 18.9899ZM44.3891 14.789C44.4647 14.3708 44.5781 13.9526 44.7671 13.5724C44.9372 13.1923 45.1829 12.8501 45.4665 12.5269C45.75 12.2228 46.0902 11.9567 46.4871 11.7476C47.2999 11.3484 48.1315 11.2153 48.9821 11.3484C49.8326 11.4815 50.6453 11.8806 51.4392 12.546L44.3135 16.1006C44.2946 15.6444 44.3324 15.2072 44.3891 14.789Z" fill="#fff"/>
<path d="M61 21.756V26.2167C61 26.4435 61.057 26.6136 61.1901 26.7648C61.3041 26.916 61.4942 26.9916 61.7604 26.9916H86.3387C86.5858 26.9916 86.7759 26.916 86.909 26.7837C87.023 26.6514 87.0991 26.4624 87.0991 26.2167V21.756C87.0991 21.5103 87.0231 21.3213 86.89 21.189C86.7569 21.0567 86.5668 21 86.3577 21H61.7413C61.5132 21 61.3422 21.0756 61.2091 21.2079C61.076 21.3402 61 21.5292 61 21.756Z" fill="#FF2759"/>
<path d="M98.7376 8.8581H95.7512V7.79361C95.7512 7.31839 95.8079 6.93821 95.9024 6.63407C95.9969 6.32993 96.1481 6.10183 96.3371 5.93075C96.5261 5.75967 96.753 5.64561 97.0176 5.56958C97.2822 5.51255 97.5846 5.47453 97.9248 5.47453C98.2272 5.47453 98.473 5.41751 98.6242 5.30345C98.7943 5.1894 98.8699 4.9613 98.8699 4.60013V0.93143C98.8699 0.570263 98.8132 0.32315 98.6809 0.190088C98.5486 0.0570264 98.2839 0 97.8681 0C96.5828 0 95.4488 0.190088 94.447 0.570264C93.4453 0.95044 92.5947 1.44467 91.9143 2.09097C91.2338 2.73727 90.7046 3.4596 90.3455 4.315C89.9864 5.15139 89.7974 6.0448 89.7974 6.99524V8.87711H87.6237C87.4536 8.87711 87.3213 8.93414 87.189 9.02918C87.0756 9.14323 87 9.2953 87 9.5044V13.6863C87 13.8954 87.0567 14.0475 87.1701 14.1616C87.2835 14.2756 87.4347 14.3136 87.6048 14.3136H89.7784V26.2321C89.7784 26.6884 90.0053 26.9165 90.4589 26.9165H95.0519C95.5055 26.9165 95.7323 26.6884 95.7323 26.2321V14.3136H98.7187C99.1156 14.3136 99.3235 14.1045 99.3235 13.6863V9.5044C99.3424 9.0672 99.1345 8.8581 98.7376 8.8581Z" fill="#fff"/>
</svg>
